<?xml version="1.0" encoding="utf-8"?>
<svg version="1.1" xmlns="http://www.w3.org/2000/svg" xmlns:xlink="http://www.w3.org/1999/xlink" x="0px" y="0px"
	 viewBox="0 0 234 234" style="enable-background:new 0 0 234 234;" xml:space="preserve">
<style type="text/css">
	.st0{fill:none;}
	.st1{fill:#0969DA;}
	.st2{fill:#033D8B;}
	.st3{fill:#54AEFF;}
	.st4{fill:#B6E3FF;}
</style>
<path class="st0" d="M0,234V0h234v234H0z M21,116.6c0,23.7,0.1,47.3,0,71c-0.2,3.8,1.8,7.4,5.3,9.1c18.9,10.8,37.7,21.7,56.4,32.6
	c3.2,2.1,7.3,2.1,10.5,0c32.1-18.6,64.1-37.1,96.3-55.5c8.6-5,17.1-10,25.8-14.8c4.2-2.3,6.2-5.3,6-10.2c-0.3-6,0.1-12,0.1-18
	c0-14.7-0.3-29.5,0-44.2c0.1-6-1.6-10-7.2-12.8c-7.1-3.5-13.8-7.8-20.6-11.7C159.9,42.7,126.3,23.3,92.8,4c-2.9-1.9-6.7-1.9-9.6,0
	c-19,11.1-38.1,22.1-57.3,33.1c-3.2,1.6-5.1,4.9-4.9,8.5C21,69.2,21,92.9,21,116.6z"/>
<path class="st1" d="M205.8,102.9c-1.5-0.8-2.3-1.2-3.2-1.7c-37.2-21.6-74.5-43.1-111.8-64.7c-1.2-0.8-2.6-1.5-4-1.9
	c-5.1-1.2-9.4,2.4-9.4,7.9c0,14.9,0,29.8,0,44.7c0,21.8,0,43.7,0,65.5c0.2,1.8-0.8,3.6-2.5,4.3c-3.1,1.6-6,3.4-9.5,5.4
	c-0.1-1.2-0.2-2.1-0.2-2.9c0-41.7,0-83.3,0-125c-0.2-1.7,0.8-3.4,2.4-4.1C73.7,27,79.8,23.5,85.8,20c1.2-0.9,2.9-0.9,4.1-0.1
	c37.9,21.9,75.9,43.8,113.9,65.7c1.4,0.7,2.3,2.2,2.1,3.8C205.7,93.6,205.8,98,205.8,102.9z"/>
<path class="st2" d="M49.8,40.8v4.4c0,43,0.1,86-0.1,129c0,7.1,6.3,11.5,13.1,7.6c31.5-18.4,63.2-36.6,94.8-54.9c1.3-1,3.2-1,4.5,0
	c3,1.9,6.1,3.6,9.5,5.6c-1,0.7-1.7,1.1-2.4,1.5C133,154.8,97,175.7,60.9,196.5c-1.3,1-3.2,1-4.5,0c-6-3.6-12-7.1-18.1-10.5
	c-1.4-0.6-2.2-2.1-2.1-3.6c0-43.8,0-87.6,0-131.4c-0.1-1.5,0.7-2.9,2.1-3.6C41.9,45.4,45.5,43.3,49.8,40.8z"/>
<path class="st3" d="M93.1,55.8c4.1,2.4,7.6,4.3,11,6.3c32.7,18.9,65.4,37.7,98.1,56.5c2.5,1.4,3.5,3,3.4,5.9
	c-0.2,6.3-0.1,12.7,0,19c0.2,2-0.8,3.9-2.7,4.8c-35.3,20.2-70.5,40.5-105.7,60.9c-2.5,1.4-5,3-7.6,4.4c-0.7,0.4-1.7,0.8-2.3,0.5
	c-4.1-2.2-8.2-4.6-12.7-7.3c1.4-0.9,2.3-1.4,3.2-2c37.4-21.6,74.8-43.1,112.1-64.7c2.6-1.5,4.8-3.3,5.1-6.6c0.3-3.8-1.5-6.3-4.6-8.1
	c-14.8-8.5-29.6-17-44.4-25.6c-17-9.8-34-19.7-51-29.5c-1.3-0.6-2.1-1.9-2-3.4C93.2,63.4,93.1,59.9,93.1,55.8z"/>
<path class="st4" d="M92.7,146.8V86.7l52.1,30.1L92.7,146.8z"/>
</svg>
